<svg width="174" height="200" viewBox="0 0 174 200" fill="none" xmlns="http://www.w3.org/2000/svg">
<path d="M94.9725 195.418C90.0361 198.255 83.9639 198.255 79.0275 195.418L8.02745 154.613C3.06156 151.76 -8.19476e-06 146.469 -7.69404e-06 140.741L-5.70613e-07 59.2587C-6.98923e-08 53.5312 3.06157 48.2405 8.02746 45.3865L79.0275 4.58193C83.9639 1.74489 90.0361 1.74489 94.9726 4.58193L165.973 45.3865C170.938 48.2405 174 53.5312 174 59.2588L174 140.741C174 146.469 170.938 151.76 165.973 154.613L94.9725 195.418Z" fill="#9060FC"/>
<path d="M12.1209 104C11.0809 103.493 10.5609 102.573 10.5609 101.24C10.5609 99.9067 11.0943 98.9733 12.1609 98.44C21.3076 93.0267 26.5609 89.9067 27.9209 89.08C29.2809 88.2533 30.0943 87.8 30.3609 87.72C30.6543 87.5867 31.0009 87.52 31.4009 87.52C32.1209 87.52 32.8676 88.1733 33.6409 89.48C34.1476 90.3067 34.4009 90.9333 34.4009 91.36C34.4009 91.76 34.3076 92.1067 34.1209 92.4C33.8809 92.8267 33.3343 93.32 32.4809 93.88C24.5343 98.5733 20.4009 101.027 20.0809 101.24L32.4809 108.6C32.9876 108.893 33.3476 109.133 33.5609 109.32C34.1476 109.8 34.4409 110.32 34.4409 110.88C34.4409 111.413 34.2009 112.067 33.7209 112.84C33.2676 113.587 32.8543 114.12 32.4809 114.44C32.1076 114.76 31.7209 114.92 31.3209 114.92C30.7876 114.92 30.0943 114.667 29.2409 114.16L12.1209 104Z" fill="white"/>
<path d="M47.5463 118L39.9623 84.496H47.1623L50.3303 100.576L52.1063 109.888H52.2503L54.3623 100.576L58.0583 84.496H66.0263L69.7703 100.576L71.8343 109.888H71.9783L73.7543 100.576L76.9703 84.496H83.8823L76.1063 118H67.8023L63.5783 99.856L61.9463 92.512H61.8023L60.1223 99.856L55.8983 118H47.5463ZM103.062 90.976V118H95.7664V90.976H86.6944V84.496H112.134V90.976H103.062Z" fill="white"/>
<path d="M124.974 115.32C124.76 115.773 124.587 116.107 124.454 116.32C124.347 116.533 124.147 116.733 123.854 116.92C123.587 117.133 123.227 117.24 122.774 117.24C122.32 117.24 121.654 117.04 120.774 116.64C119.894 116.24 119.294 115.88 118.974 115.56C118.68 115.267 118.534 114.933 118.534 114.56C118.534 114.187 118.694 113.52 119.014 112.56L131.894 85.64C132.4 84.6267 132.854 84.04 133.254 83.88C133.467 83.7733 133.774 83.72 134.174 83.72C134.6 83.72 135.28 83.9333 136.214 84.36C137.654 85.0533 138.374 85.8133 138.374 86.64C138.374 86.9867 138.187 87.6533 137.814 88.64L124.974 115.32ZM161.828 98.44C162.895 98.9733 163.428 99.9067 163.428 101.24C163.428 102.573 162.908 103.493 161.868 104L144.788 114.16C143.428 115.04 142.335 115.133 141.508 114.44C141.135 114.12 140.748 113.64 140.348 113C139.815 112.12 139.548 111.48 139.548 111.08C139.548 110.68 139.628 110.333 139.788 110.04C140.082 109.587 140.655 109.107 141.508 108.6L153.948 101.24L141.548 93.88C141.068 93.5867 140.708 93.3467 140.468 93.16C139.882 92.6533 139.588 92.1067 139.588 91.52C139.588 90.9867 139.815 90.3467 140.268 89.6C141.095 88.2133 141.868 87.52 142.588 87.52C143.228 87.52 143.948 87.7733 144.748 88.28L161.828 98.44Z" fill="white"/>
</svg>
